# xmcd CD database file
#
# Track frame offsets:
#	159
#	23598
#	56585
#	66975
#	91662
#	108056
#	132396
#	160236
#	179607
#	194797
#
# Disc length: 2813 seconds
#
# Revision: 0
# Processed by: cddbd v1.5.2PL0 Copyright (c) Steve Scherf et al.
# Submitted via: CDex 1.70beta2
#
DISCID=860afb0a
DTITLE=A Jazz Band - The Jazz Tribute to Sting and The Police
DYEAR=2002
DGENRE=Jazz
TTITLE0=We'll Be Together
TTITLE1=Desert Rose
TTITLE2=If You Love Sombody( Set them Free)
TTITLE3=Every Breath You Take
TTITLE4=Fields of Gold
TTITLE5=King of Pain
TTITLE6=Wrapped Around Your Finger
TTITLE7=Every Little thing She Does is Magic
TTITLE8=Englishman in New  York
TTITLE9=If I Ever Lose My Faith in You
EXTD=YEAR: 2002
EXTT0=
EXTT1=
EXTT2=
EXTT3=
EXTT4=
EXTT5=
EXTT6=
EXTT7=
EXTT8=
EXTT9=
PLAYORDER=
